<svg width="27" height="24" viewBox="0 0 27 24" fill="none" xmlns="http://www.w3.org/2000/svg">
<g clip-path="url(#clip0)">
<path d="M13.5 0C20.9449 0 27 4.96324 27 11.0184C27 13.5993 25.9081 16.0809 24.0221 17.9669C24.7169 20.6471 26.9007 23.0294 26.9007 23.0294C27 23.1287 27 23.3272 27 23.5257C27 23.7243 26.8015 23.8235 26.6029 23.8235C23.1287 23.8235 20.4485 22.136 19.1581 21.1434C17.4706 21.8382 15.4853 22.136 13.5 22.136C6.05515 21.9375 0 17.0735 0 11.0184C0 4.96324 6.05515 0 13.5 0Z" fill="white"/>
<path d="M17.7695 9.23163C18.7015 9.23163 19.457 8.47611 19.457 7.54413C19.457 6.61215 18.7015 5.85663 17.7695 5.85663C16.8375 5.85663 16.082 6.61215 16.082 7.54413C16.082 8.47611 16.8375 9.23163 17.7695 9.23163Z" fill="#48485C"/>
<path d="M9.23047 9.23163C10.1624 9.23163 10.918 8.47611 10.918 7.54413C10.918 6.61215 10.1624 5.85663 9.23047 5.85663C8.29849 5.85663 7.54297 6.61215 7.54297 7.54413C7.54297 8.47611 8.29849 9.23163 9.23047 9.23163Z" fill="#48485C"/>
<path d="M19.5557 14.8897C18.0668 16.6765 15.8829 17.7684 13.5006 17.7684C11.1182 17.7684 8.9344 16.6765 7.44543 14.8897C6.75057 13.9963 8.04101 12.9044 8.73587 13.7978C9.92704 15.1875 11.6145 15.9816 13.5006 15.9816C15.3866 15.9816 17.0741 15.1875 18.2653 13.7978C18.9601 12.9044 20.2506 13.9963 19.5557 14.8897Z" fill="#48485C"/>
</g>
<defs>
<clipPath id="clip0">
<rect width="27" height="23.625" fill="white"/>
</clipPath>
</defs>
</svg>
